<mxfile host="app.diagrams.net" agent="Mozilla/5.0 (Windows NT 10.0; Win64; x64) AppleWebKit/537.36 (KHTML, like Gecko) Chrome/126.0.0.0 YaBrowser/24.7.0.0 Safari/537.36" version="24.7.6">
  <diagram id="skyB6q6BRRAA29wVL2xn" name="Страница 1">
    <mxGraphModel dx="1940" dy="639" grid="1" gridSize="10" guides="1" tooltips="1" connect="1" arrows="1" fold="1" page="1" pageScale="1" pageWidth="827" pageHeight="1169" math="0" shadow="0">
      <root>
        <mxCell id="0" />
        <mxCell id="1" parent="0" />
        <mxCell id="R0LKcXxf1loNDlZdEOaP-101" style="edgeStyle=orthogonalEdgeStyle;rounded=1;orthogonalLoop=1;jettySize=auto;html=1;exitX=0;exitY=0.5;exitDx=0;exitDy=0;entryX=0;entryY=0.5;entryDx=0;entryDy=0;endArrow=none;endFill=0;" parent="1" source="o3dYbopEb7aljcyI0qQh-1" target="R0LKcXxf1loNDlZdEOaP-94" edge="1">
          <mxGeometry relative="1" as="geometry">
            <Array as="points">
              <mxPoint x="160" y="230" />
              <mxPoint x="160" y="570" />
            </Array>
          </mxGeometry>
        </mxCell>
        <mxCell id="o3dYbopEb7aljcyI0qQh-1" value="&lt;b&gt;id&lt;/b&gt;" style="rounded=0;whiteSpace=wrap;html=1;align=left;spacingLeft=5;" parent="1" vertex="1">
          <mxGeometry x="200" y="220" width="100" height="20" as="geometry" />
        </mxCell>
        <mxCell id="R0LKcXxf1loNDlZdEOaP-77" style="edgeStyle=orthogonalEdgeStyle;rounded=1;orthogonalLoop=1;jettySize=auto;html=1;exitX=1;exitY=0.5;exitDx=0;exitDy=0;entryX=0;entryY=0.5;entryDx=0;entryDy=0;endArrow=none;endFill=0;" parent="1" source="R0LKcXxf1loNDlZdEOaP-4" target="R0LKcXxf1loNDlZdEOaP-17" edge="1">
          <mxGeometry relative="1" as="geometry" />
        </mxCell>
        <mxCell id="R0LKcXxf1loNDlZdEOaP-4" value="String" style="rounded=0;whiteSpace=wrap;html=1;spacingLeft=0;fontStyle=2" parent="1" vertex="1">
          <mxGeometry x="300" y="220" width="100" height="20" as="geometry" />
        </mxCell>
        <mxCell id="R0LKcXxf1loNDlZdEOaP-5" value="username" style="rounded=0;whiteSpace=wrap;html=1;align=left;spacingLeft=5;" parent="1" vertex="1">
          <mxGeometry x="200" y="240" width="100" height="20" as="geometry" />
        </mxCell>
        <mxCell id="R0LKcXxf1loNDlZdEOaP-78" style="edgeStyle=orthogonalEdgeStyle;rounded=1;orthogonalLoop=1;jettySize=auto;html=1;exitX=1;exitY=0.5;exitDx=0;exitDy=0;entryX=0;entryY=0.5;entryDx=0;entryDy=0;endArrow=none;endFill=0;" parent="1" source="R0LKcXxf1loNDlZdEOaP-6" target="R0LKcXxf1loNDlZdEOaP-19" edge="1">
          <mxGeometry relative="1" as="geometry" />
        </mxCell>
        <mxCell id="R0LKcXxf1loNDlZdEOaP-6" value="String" style="rounded=0;whiteSpace=wrap;html=1;spacingLeft=0;fontStyle=2" parent="1" vertex="1">
          <mxGeometry x="300" y="240" width="100" height="20" as="geometry" />
        </mxCell>
        <mxCell id="R0LKcXxf1loNDlZdEOaP-7" value="password" style="rounded=0;whiteSpace=wrap;html=1;align=left;spacingLeft=5;" parent="1" vertex="1">
          <mxGeometry x="200" y="260" width="100" height="20" as="geometry" />
        </mxCell>
        <mxCell id="R0LKcXxf1loNDlZdEOaP-8" value="String" style="rounded=0;whiteSpace=wrap;html=1;spacingLeft=0;fontStyle=2" parent="1" vertex="1">
          <mxGeometry x="300" y="260" width="100" height="20" as="geometry" />
        </mxCell>
        <mxCell id="R0LKcXxf1loNDlZdEOaP-9" value="salt" style="rounded=0;whiteSpace=wrap;html=1;align=left;spacingLeft=5;" parent="1" vertex="1">
          <mxGeometry x="200" y="280" width="100" height="20" as="geometry" />
        </mxCell>
        <mxCell id="R0LKcXxf1loNDlZdEOaP-10" value="String" style="rounded=0;whiteSpace=wrap;html=1;spacingLeft=0;fontStyle=2" parent="1" vertex="1">
          <mxGeometry x="300" y="280" width="100" height="20" as="geometry" />
        </mxCell>
        <mxCell id="R0LKcXxf1loNDlZdEOaP-11" value="email" style="rounded=0;whiteSpace=wrap;html=1;align=left;spacingLeft=5;" parent="1" vertex="1">
          <mxGeometry x="200" y="300" width="100" height="20" as="geometry" />
        </mxCell>
        <mxCell id="R0LKcXxf1loNDlZdEOaP-12" value="String" style="rounded=0;whiteSpace=wrap;html=1;spacingLeft=0;fontStyle=2" parent="1" vertex="1">
          <mxGeometry x="300" y="300" width="100" height="20" as="geometry" />
        </mxCell>
        <mxCell id="R0LKcXxf1loNDlZdEOaP-13" value="enabled" style="rounded=0;whiteSpace=wrap;html=1;align=left;spacingLeft=5;" parent="1" vertex="1">
          <mxGeometry x="200" y="340" width="100" height="20" as="geometry" />
        </mxCell>
        <mxCell id="R0LKcXxf1loNDlZdEOaP-79" style="edgeStyle=orthogonalEdgeStyle;rounded=1;orthogonalLoop=1;jettySize=auto;html=1;exitX=1;exitY=0.5;exitDx=0;exitDy=0;entryX=0;entryY=0.5;entryDx=0;entryDy=0;endArrow=none;endFill=0;" parent="1" source="R0LKcXxf1loNDlZdEOaP-14" target="R0LKcXxf1loNDlZdEOaP-21" edge="1">
          <mxGeometry relative="1" as="geometry" />
        </mxCell>
        <mxCell id="R0LKcXxf1loNDlZdEOaP-14" value="Boolean" style="rounded=0;whiteSpace=wrap;html=1;spacingLeft=0;fontStyle=2" parent="1" vertex="1">
          <mxGeometry x="300" y="340" width="100" height="20" as="geometry" />
        </mxCell>
        <mxCell id="R0LKcXxf1loNDlZdEOaP-15" value="role" style="rounded=0;whiteSpace=wrap;html=1;align=left;spacingLeft=5;" parent="1" vertex="1">
          <mxGeometry x="200" y="360" width="100" height="20" as="geometry" />
        </mxCell>
        <mxCell id="R0LKcXxf1loNDlZdEOaP-102" style="edgeStyle=orthogonalEdgeStyle;rounded=1;orthogonalLoop=1;jettySize=auto;html=1;exitX=1;exitY=0.5;exitDx=0;exitDy=0;entryX=1;entryY=0.5;entryDx=0;entryDy=0;endArrow=none;endFill=0;" parent="1" target="R0LKcXxf1loNDlZdEOaP-99" edge="1">
          <mxGeometry relative="1" as="geometry">
            <Array as="points">
              <mxPoint x="420" y="370" />
              <mxPoint x="420" y="590" />
            </Array>
            <mxPoint x="400" y="370" as="sourcePoint" />
          </mxGeometry>
        </mxCell>
        <mxCell id="R0LKcXxf1loNDlZdEOaP-17" value="&lt;b&gt;id&lt;/b&gt;" style="rounded=0;whiteSpace=wrap;html=1;align=left;spacingLeft=5;" parent="1" vertex="1">
          <mxGeometry x="480" y="220" width="100" height="20" as="geometry" />
        </mxCell>
        <mxCell id="R0LKcXxf1loNDlZdEOaP-83" style="edgeStyle=orthogonalEdgeStyle;rounded=1;orthogonalLoop=1;jettySize=auto;html=1;exitX=1;exitY=0.5;exitDx=0;exitDy=0;entryX=1;entryY=0.5;entryDx=0;entryDy=0;endArrow=none;endFill=0;" parent="1" edge="1">
          <mxGeometry relative="1" as="geometry">
            <Array as="points">
              <mxPoint x="700" y="230" />
              <mxPoint x="700" y="530" />
            </Array>
            <mxPoint x="670.0000000000002" y="230" as="sourcePoint" />
            <mxPoint x="670.0000000000002" y="530" as="targetPoint" />
          </mxGeometry>
        </mxCell>
        <mxCell id="R0LKcXxf1loNDlZdEOaP-84" style="edgeStyle=orthogonalEdgeStyle;rounded=1;orthogonalLoop=1;jettySize=auto;html=1;exitX=1;exitY=0.5;exitDx=0;exitDy=0;entryX=1;entryY=0.5;entryDx=0;entryDy=0;endArrow=none;endFill=0;" parent="1" edge="1">
          <mxGeometry relative="1" as="geometry">
            <Array as="points">
              <mxPoint x="700" y="230" />
              <mxPoint x="700" y="410" />
            </Array>
            <mxPoint x="670.0000000000002" y="230" as="sourcePoint" />
            <mxPoint x="670.0000000000002" y="410" as="targetPoint" />
          </mxGeometry>
        </mxCell>
        <mxCell id="R0LKcXxf1loNDlZdEOaP-85" style="edgeStyle=orthogonalEdgeStyle;rounded=1;orthogonalLoop=1;jettySize=auto;html=1;exitX=1;exitY=0.5;exitDx=0;exitDy=0;entryX=1;entryY=0.5;entryDx=0;entryDy=0;endArrow=none;endFill=0;" parent="1" source="R0LKcXxf1loNDlZdEOaP-18" target="R0LKcXxf1loNDlZdEOaP-47" edge="1">
          <mxGeometry relative="1" as="geometry">
            <Array as="points">
              <mxPoint x="700" y="230" />
              <mxPoint x="700" y="430" />
            </Array>
          </mxGeometry>
        </mxCell>
        <mxCell id="R0LKcXxf1loNDlZdEOaP-18" value="String" style="rounded=0;whiteSpace=wrap;html=1;spacingLeft=0;fontStyle=2" parent="1" vertex="1">
          <mxGeometry x="580" y="220" width="100" height="20" as="geometry" />
        </mxCell>
        <mxCell id="R0LKcXxf1loNDlZdEOaP-19" value="username" style="rounded=0;whiteSpace=wrap;html=1;align=left;spacingLeft=5;" parent="1" vertex="1">
          <mxGeometry x="480" y="240" width="100" height="20" as="geometry" />
        </mxCell>
        <mxCell id="R0LKcXxf1loNDlZdEOaP-20" value="String" style="rounded=0;whiteSpace=wrap;html=1;spacingLeft=0;fontStyle=2" parent="1" vertex="1">
          <mxGeometry x="580" y="240" width="100" height="20" as="geometry" />
        </mxCell>
        <mxCell id="R0LKcXxf1loNDlZdEOaP-21" value="enabled&lt;span style=&quot;white-space: pre;&quot;&gt;&#x9;&lt;/span&gt;&lt;span style=&quot;white-space: pre;&quot;&gt;&#x9;&lt;/span&gt;" style="rounded=0;whiteSpace=wrap;html=1;align=left;spacingLeft=5;" parent="1" vertex="1">
          <mxGeometry x="480" y="260" width="100" height="20" as="geometry" />
        </mxCell>
        <mxCell id="R0LKcXxf1loNDlZdEOaP-22" value="Boolean" style="rounded=0;whiteSpace=wrap;html=1;spacingLeft=0;fontStyle=2" parent="1" vertex="1">
          <mxGeometry x="580" y="260" width="100" height="20" as="geometry" />
        </mxCell>
        <mxCell id="R0LKcXxf1loNDlZdEOaP-23" value="name" style="rounded=0;whiteSpace=wrap;html=1;align=left;spacingLeft=5;" parent="1" vertex="1">
          <mxGeometry x="480" y="280" width="100" height="20" as="geometry" />
        </mxCell>
        <mxCell id="R0LKcXxf1loNDlZdEOaP-24" value="String" style="rounded=0;whiteSpace=wrap;html=1;spacingLeft=0;fontStyle=2" parent="1" vertex="1">
          <mxGeometry x="580" y="280" width="100" height="20" as="geometry" />
        </mxCell>
        <mxCell id="R0LKcXxf1loNDlZdEOaP-25" value="status" style="rounded=0;whiteSpace=wrap;html=1;align=left;spacingLeft=5;" parent="1" vertex="1">
          <mxGeometry x="480" y="300" width="100" height="20" as="geometry" />
        </mxCell>
        <mxCell id="R0LKcXxf1loNDlZdEOaP-26" value="String" style="rounded=0;whiteSpace=wrap;html=1;spacingLeft=0;fontStyle=2" parent="1" vertex="1">
          <mxGeometry x="580" y="300" width="100" height="20" as="geometry" />
        </mxCell>
        <mxCell id="R0LKcXxf1loNDlZdEOaP-27" value="image_id" style="rounded=0;whiteSpace=wrap;html=1;align=left;spacingLeft=5;" parent="1" vertex="1">
          <mxGeometry x="480" y="320" width="100" height="20" as="geometry" />
        </mxCell>
        <mxCell id="R0LKcXxf1loNDlZdEOaP-28" value="String" style="rounded=0;whiteSpace=wrap;html=1;spacingLeft=0;fontStyle=2" parent="1" vertex="1">
          <mxGeometry x="580" y="320" width="100" height="20" as="geometry" />
        </mxCell>
        <mxCell id="R0LKcXxf1loNDlZdEOaP-31" value="user_auth" style="rounded=0;whiteSpace=wrap;html=1;fontStyle=1" parent="1" vertex="1">
          <mxGeometry x="200" y="200" width="200" height="20" as="geometry" />
        </mxCell>
        <mxCell id="R0LKcXxf1loNDlZdEOaP-32" value="user_profile" style="rounded=0;whiteSpace=wrap;html=1;fontStyle=1" parent="1" vertex="1">
          <mxGeometry x="480" y="200" width="200" height="20" as="geometry" />
        </mxCell>
        <mxCell id="R0LKcXxf1loNDlZdEOaP-33" value="&lt;b&gt;from_user_id&lt;/b&gt;" style="rounded=0;whiteSpace=wrap;html=1;align=left;spacingLeft=5;" parent="1" vertex="1">
          <mxGeometry x="480" y="400" width="100" height="20" as="geometry" />
        </mxCell>
        <mxCell id="R0LKcXxf1loNDlZdEOaP-34" value="String" style="rounded=0;whiteSpace=wrap;html=1;spacingLeft=0;fontStyle=2" parent="1" vertex="1">
          <mxGeometry x="580" y="400" width="100" height="20" as="geometry" />
        </mxCell>
        <mxCell id="R0LKcXxf1loNDlZdEOaP-45" value="friend_requests" style="rounded=0;whiteSpace=wrap;html=1;fontStyle=1" parent="1" vertex="1">
          <mxGeometry x="480" y="380" width="200" height="20" as="geometry" />
        </mxCell>
        <mxCell id="R0LKcXxf1loNDlZdEOaP-46" value="&lt;b&gt;to_user_id&lt;/b&gt;" style="rounded=0;whiteSpace=wrap;html=1;align=left;spacingLeft=5;" parent="1" vertex="1">
          <mxGeometry x="480" y="420" width="100" height="20" as="geometry" />
        </mxCell>
        <mxCell id="R0LKcXxf1loNDlZdEOaP-47" value="String" style="rounded=0;whiteSpace=wrap;html=1;spacingLeft=0;fontStyle=2" parent="1" vertex="1">
          <mxGeometry x="580" y="420" width="100" height="20" as="geometry" />
        </mxCell>
        <mxCell id="R0LKcXxf1loNDlZdEOaP-80" style="edgeStyle=orthogonalEdgeStyle;rounded=1;orthogonalLoop=1;jettySize=auto;html=1;exitX=0;exitY=0.5;exitDx=0;exitDy=0;entryX=0;entryY=0.5;entryDx=0;entryDy=0;endArrow=none;endFill=0;" parent="1" source="R0LKcXxf1loNDlZdEOaP-48" target="R0LKcXxf1loNDlZdEOaP-61" edge="1">
          <mxGeometry relative="1" as="geometry">
            <Array as="points">
              <mxPoint x="460" y="610" />
              <mxPoint x="460" y="510" />
            </Array>
          </mxGeometry>
        </mxCell>
        <mxCell id="R0LKcXxf1loNDlZdEOaP-48" value="&lt;b&gt;id&lt;/b&gt;" style="rounded=0;whiteSpace=wrap;html=1;align=left;spacingLeft=5;" parent="1" vertex="1">
          <mxGeometry x="480" y="600" width="100" height="20" as="geometry" />
        </mxCell>
        <mxCell id="R0LKcXxf1loNDlZdEOaP-49" value="String" style="rounded=0;whiteSpace=wrap;html=1;spacingLeft=0;fontStyle=2" parent="1" vertex="1">
          <mxGeometry x="580" y="600" width="100" height="20" as="geometry" />
        </mxCell>
        <mxCell id="R0LKcXxf1loNDlZdEOaP-50" value="data" style="rounded=0;whiteSpace=wrap;html=1;align=left;spacingLeft=5;" parent="1" vertex="1">
          <mxGeometry x="480" y="620" width="100" height="20" as="geometry" />
        </mxCell>
        <mxCell id="R0LKcXxf1loNDlZdEOaP-51" value="Binary" style="rounded=0;whiteSpace=wrap;html=1;spacingLeft=0;fontStyle=2" parent="1" vertex="1">
          <mxGeometry x="580" y="620" width="100" height="20" as="geometry" />
        </mxCell>
        <mxCell id="R0LKcXxf1loNDlZdEOaP-52" value="created" style="rounded=0;whiteSpace=wrap;html=1;align=left;spacingLeft=5;" parent="1" vertex="1">
          <mxGeometry x="480" y="660" width="100" height="20" as="geometry" />
        </mxCell>
        <mxCell id="R0LKcXxf1loNDlZdEOaP-53" value="Timestamp" style="rounded=0;whiteSpace=wrap;html=1;spacingLeft=0;fontStyle=2" parent="1" vertex="1">
          <mxGeometry x="580" y="660" width="100" height="20" as="geometry" />
        </mxCell>
        <mxCell id="R0LKcXxf1loNDlZdEOaP-54" value="owner_id" style="rounded=0;whiteSpace=wrap;html=1;align=left;spacingLeft=5;" parent="1" vertex="1">
          <mxGeometry x="480" y="680" width="100" height="20" as="geometry" />
        </mxCell>
        <mxCell id="R0LKcXxf1loNDlZdEOaP-55" value="String" style="rounded=0;whiteSpace=wrap;html=1;spacingLeft=0;fontStyle=2" parent="1" vertex="1">
          <mxGeometry x="580" y="680" width="100" height="20" as="geometry" />
        </mxCell>
        <mxCell id="R0LKcXxf1loNDlZdEOaP-60" value="image" style="rounded=0;whiteSpace=wrap;html=1;fontStyle=1" parent="1" vertex="1">
          <mxGeometry x="480" y="580" width="200" height="20" as="geometry" />
        </mxCell>
        <mxCell id="R0LKcXxf1loNDlZdEOaP-61" value="&lt;b&gt;image_id&lt;/b&gt;" style="rounded=0;whiteSpace=wrap;html=1;align=left;spacingLeft=5;" parent="1" vertex="1">
          <mxGeometry x="480" y="500" width="100" height="20" as="geometry" />
        </mxCell>
        <mxCell id="R0LKcXxf1loNDlZdEOaP-62" value="String" style="rounded=0;whiteSpace=wrap;html=1;spacingLeft=0;fontStyle=2" parent="1" vertex="1">
          <mxGeometry x="580" y="500" width="100" height="20" as="geometry" />
        </mxCell>
        <mxCell id="R0LKcXxf1loNDlZdEOaP-69" value="image_permissions" style="rounded=0;whiteSpace=wrap;html=1;fontStyle=1" parent="1" vertex="1">
          <mxGeometry x="480" y="480" width="200" height="20" as="geometry" />
        </mxCell>
        <mxCell id="R0LKcXxf1loNDlZdEOaP-70" value="&lt;b&gt;user_id&lt;/b&gt;" style="rounded=0;whiteSpace=wrap;html=1;align=left;spacingLeft=5;" parent="1" vertex="1">
          <mxGeometry x="480" y="520" width="100" height="20" as="geometry" />
        </mxCell>
        <mxCell id="R0LKcXxf1loNDlZdEOaP-71" value="String" style="rounded=0;whiteSpace=wrap;html=1;spacingLeft=0;fontStyle=2" parent="1" vertex="1">
          <mxGeometry x="580" y="520" width="100" height="20" as="geometry" />
        </mxCell>
        <mxCell id="R0LKcXxf1loNDlZdEOaP-86" value="access_token" style="rounded=0;whiteSpace=wrap;html=1;align=left;spacingLeft=5;" parent="1" vertex="1">
          <mxGeometry x="200" y="460" width="100" height="20" as="geometry" />
        </mxCell>
        <mxCell id="R0LKcXxf1loNDlZdEOaP-87" value="String" style="rounded=0;whiteSpace=wrap;html=1;spacingLeft=0;fontStyle=2" parent="1" vertex="1">
          <mxGeometry x="300" y="460" width="100" height="20" as="geometry" />
        </mxCell>
        <mxCell id="R0LKcXxf1loNDlZdEOaP-88" value="refresh_token" style="rounded=0;whiteSpace=wrap;html=1;align=left;spacingLeft=5;" parent="1" vertex="1">
          <mxGeometry x="200" y="480" width="100" height="20" as="geometry" />
        </mxCell>
        <mxCell id="R0LKcXxf1loNDlZdEOaP-89" value="String" style="rounded=0;whiteSpace=wrap;html=1;spacingLeft=0;fontStyle=2" parent="1" vertex="1">
          <mxGeometry x="300" y="480" width="100" height="20" as="geometry" />
        </mxCell>
        <mxCell id="R0LKcXxf1loNDlZdEOaP-90" value="token_type" style="rounded=0;whiteSpace=wrap;html=1;align=left;spacingLeft=5;" parent="1" vertex="1">
          <mxGeometry x="200" y="500" width="100" height="20" as="geometry" />
        </mxCell>
        <mxCell id="R0LKcXxf1loNDlZdEOaP-91" value="String" style="rounded=0;whiteSpace=wrap;html=1;spacingLeft=0;fontStyle=2" parent="1" vertex="1">
          <mxGeometry x="300" y="500" width="100" height="20" as="geometry" />
        </mxCell>
        <mxCell id="R0LKcXxf1loNDlZdEOaP-92" value="expires" style="rounded=0;whiteSpace=wrap;html=1;align=left;spacingLeft=5;" parent="1" vertex="1">
          <mxGeometry x="200" y="520" width="100" height="20" as="geometry" />
        </mxCell>
        <mxCell id="R0LKcXxf1loNDlZdEOaP-93" value="Timestamp" style="rounded=0;whiteSpace=wrap;html=1;spacingLeft=0;fontStyle=2" parent="1" vertex="1">
          <mxGeometry x="300" y="520" width="100" height="20" as="geometry" />
        </mxCell>
        <mxCell id="R0LKcXxf1loNDlZdEOaP-94" value="user_id" style="rounded=0;whiteSpace=wrap;html=1;align=left;spacingLeft=5;" parent="1" vertex="1">
          <mxGeometry x="200" y="560" width="100" height="20" as="geometry" />
        </mxCell>
        <mxCell id="R0LKcXxf1loNDlZdEOaP-95" value="String" style="rounded=0;whiteSpace=wrap;html=1;spacingLeft=0;fontStyle=2" parent="1" vertex="1">
          <mxGeometry x="300" y="560" width="100" height="20" as="geometry" />
        </mxCell>
        <mxCell id="R0LKcXxf1loNDlZdEOaP-98" value="role" style="rounded=0;whiteSpace=wrap;html=1;align=left;spacingLeft=5;" parent="1" vertex="1">
          <mxGeometry x="200" y="580" width="100" height="20" as="geometry" />
        </mxCell>
        <mxCell id="R0LKcXxf1loNDlZdEOaP-99" value="String (enum)" style="rounded=0;whiteSpace=wrap;html=1;spacingLeft=0;fontStyle=2" parent="1" vertex="1">
          <mxGeometry x="300" y="580" width="100" height="20" as="geometry" />
        </mxCell>
        <mxCell id="R0LKcXxf1loNDlZdEOaP-100" value="token" style="rounded=0;whiteSpace=wrap;html=1;fontStyle=1" parent="1" vertex="1">
          <mxGeometry x="200" y="420" width="200" height="20" as="geometry" />
        </mxCell>
        <mxCell id="_CY-QC2Wd3_7gfvw9YXV-1" value="google_auth" style="rounded=0;whiteSpace=wrap;html=1;align=left;spacingLeft=5;" parent="1" vertex="1">
          <mxGeometry x="200" y="320" width="100" height="20" as="geometry" />
        </mxCell>
        <mxCell id="_CY-QC2Wd3_7gfvw9YXV-2" value="String" style="rounded=0;whiteSpace=wrap;html=1;spacingLeft=0;fontStyle=2" parent="1" vertex="1">
          <mxGeometry x="300" y="320" width="100" height="20" as="geometry" />
        </mxCell>
        <mxCell id="LvnQudSFnJyzhxFMzb4G-2" style="edgeStyle=orthogonalEdgeStyle;rounded=1;orthogonalLoop=1;jettySize=auto;html=1;exitX=1;exitY=0.5;exitDx=0;exitDy=0;endArrow=none;endFill=0;entryX=1;entryY=0.5;entryDx=0;entryDy=0;" parent="1" source="R0LKcXxf1loNDlZdEOaP-18" target="R0LKcXxf1loNDlZdEOaP-55" edge="1">
          <mxGeometry relative="1" as="geometry">
            <Array as="points">
              <mxPoint x="700" y="230" />
              <mxPoint x="700" y="690" />
            </Array>
            <mxPoint x="720" y="290" as="sourcePoint" />
            <mxPoint x="680" y="590" as="targetPoint" />
          </mxGeometry>
        </mxCell>
        <mxCell id="pJT5ypggMm9KDsdhM-H7-1" value="thumbnail_data" style="rounded=0;whiteSpace=wrap;html=1;align=left;spacingLeft=5;" parent="1" vertex="1">
          <mxGeometry x="480" y="640" width="100" height="20" as="geometry" />
        </mxCell>
        <mxCell id="pJT5ypggMm9KDsdhM-H7-2" value="Binary" style="rounded=0;whiteSpace=wrap;html=1;spacingLeft=0;fontStyle=2" parent="1" vertex="1">
          <mxGeometry x="580" y="640" width="100" height="20" as="geometry" />
        </mxCell>
        <mxCell id="ej3S26QK11mgiXgW05DM-11" value="String (enum)" style="rounded=0;whiteSpace=wrap;html=1;spacingLeft=0;fontStyle=2" parent="1" vertex="1">
          <mxGeometry x="300" y="360" width="100" height="20" as="geometry" />
        </mxCell>
        <mxCell id="ej3S26QK11mgiXgW05DM-18" value="&lt;b&gt;id&lt;/b&gt;" style="rounded=0;whiteSpace=wrap;html=1;align=left;spacingLeft=5;" parent="1" vertex="1">
          <mxGeometry x="-80" y="360" width="100" height="20" as="geometry" />
        </mxCell>
        <mxCell id="ej3S26QK11mgiXgW05DM-19" value="String" style="rounded=0;whiteSpace=wrap;html=1;spacingLeft=0;fontStyle=2" parent="1" vertex="1">
          <mxGeometry x="20" y="360" width="100" height="20" as="geometry" />
        </mxCell>
        <mxCell id="ej3S26QK11mgiXgW05DM-20" value="confirmation" style="rounded=0;whiteSpace=wrap;html=1;fontStyle=1" parent="1" vertex="1">
          <mxGeometry x="-80" y="340" width="200" height="20" as="geometry" />
        </mxCell>
        <mxCell id="ej3S26QK11mgiXgW05DM-21" value="&lt;span&gt;code&lt;/span&gt;" style="rounded=0;whiteSpace=wrap;html=1;align=left;spacingLeft=5;fontStyle=0" parent="1" vertex="1">
          <mxGeometry x="-80" y="380" width="100" height="20" as="geometry" />
        </mxCell>
        <mxCell id="ej3S26QK11mgiXgW05DM-22" value="String" style="rounded=0;whiteSpace=wrap;html=1;spacingLeft=0;fontStyle=2" parent="1" vertex="1">
          <mxGeometry x="20" y="380" width="100" height="20" as="geometry" />
        </mxCell>
        <mxCell id="ej3S26QK11mgiXgW05DM-23" value="&lt;span&gt;user_id&lt;/span&gt;" style="rounded=0;whiteSpace=wrap;html=1;align=left;spacingLeft=5;fontStyle=0" parent="1" vertex="1">
          <mxGeometry x="-80" y="400" width="100" height="20" as="geometry" />
        </mxCell>
        <mxCell id="ej3S26QK11mgiXgW05DM-24" value="String" style="rounded=0;whiteSpace=wrap;html=1;spacingLeft=0;fontStyle=2" parent="1" vertex="1">
          <mxGeometry x="20" y="400" width="100" height="20" as="geometry" />
        </mxCell>
        <mxCell id="ej3S26QK11mgiXgW05DM-25" value="operation" style="rounded=0;whiteSpace=wrap;html=1;align=left;spacingLeft=5;fontStyle=0" parent="1" vertex="1">
          <mxGeometry x="-80" y="460" width="100" height="20" as="geometry" />
        </mxCell>
        <mxCell id="ej3S26QK11mgiXgW05DM-26" value="String (enum)" style="rounded=0;whiteSpace=wrap;html=1;spacingLeft=0;fontStyle=2" parent="1" vertex="1">
          <mxGeometry x="20" y="460" width="100" height="20" as="geometry" />
        </mxCell>
        <mxCell id="ej3S26QK11mgiXgW05DM-27" value="&lt;span&gt;data&lt;/span&gt;" style="rounded=0;whiteSpace=wrap;html=1;align=left;spacingLeft=5;fontStyle=0" parent="1" vertex="1">
          <mxGeometry x="-80" y="480" width="100" height="20" as="geometry" />
        </mxCell>
        <mxCell id="ej3S26QK11mgiXgW05DM-28" value="String" style="rounded=0;whiteSpace=wrap;html=1;spacingLeft=0;fontStyle=2" parent="1" vertex="1">
          <mxGeometry x="20" y="480" width="100" height="20" as="geometry" />
        </mxCell>
        <mxCell id="ej3S26QK11mgiXgW05DM-29" value="&lt;span&gt;expires&lt;/span&gt;" style="rounded=0;whiteSpace=wrap;html=1;align=left;spacingLeft=5;fontStyle=0" parent="1" vertex="1">
          <mxGeometry x="-80" y="500" width="100" height="20" as="geometry" />
        </mxCell>
        <mxCell id="ej3S26QK11mgiXgW05DM-30" value="Timestamp" style="rounded=0;whiteSpace=wrap;html=1;spacingLeft=0;fontStyle=2" parent="1" vertex="1">
          <mxGeometry x="20" y="500" width="100" height="20" as="geometry" />
        </mxCell>
        <mxCell id="ej3S26QK11mgiXgW05DM-31" style="edgeStyle=orthogonalEdgeStyle;rounded=1;orthogonalLoop=1;jettySize=auto;html=1;exitX=0;exitY=0.5;exitDx=0;exitDy=0;endArrow=none;endFill=0;entryX=1;entryY=0.5;entryDx=0;entryDy=0;" parent="1" source="o3dYbopEb7aljcyI0qQh-1" target="ej3S26QK11mgiXgW05DM-24" edge="1">
          <mxGeometry relative="1" as="geometry">
            <mxPoint x="140" y="240" as="sourcePoint" />
            <mxPoint x="120" y="490" as="targetPoint" />
            <Array as="points">
              <mxPoint x="160" y="230" />
              <mxPoint x="160" y="410" />
            </Array>
          </mxGeometry>
        </mxCell>
        <mxCell id="N8frpflMNdp1qF_f6yks-1" value="&lt;b&gt;id&lt;/b&gt;" style="rounded=0;whiteSpace=wrap;html=1;align=left;spacingLeft=5;" parent="1" vertex="1">
          <mxGeometry x="200" y="440" width="100" height="20" as="geometry" />
        </mxCell>
        <mxCell id="N8frpflMNdp1qF_f6yks-2" value="String" style="rounded=0;whiteSpace=wrap;html=1;spacingLeft=0;fontStyle=2" parent="1" vertex="1">
          <mxGeometry x="300" y="440" width="100" height="20" as="geometry" />
        </mxCell>
        <mxCell id="N8frpflMNdp1qF_f6yks-3" value="refresh_expires" style="rounded=0;whiteSpace=wrap;html=1;align=left;spacingLeft=5;" parent="1" vertex="1">
          <mxGeometry x="200" y="540" width="100" height="20" as="geometry" />
        </mxCell>
        <mxCell id="N8frpflMNdp1qF_f6yks-4" value="Timestamp" style="rounded=0;whiteSpace=wrap;html=1;spacingLeft=0;fontStyle=2" parent="1" vertex="1">
          <mxGeometry x="300" y="540" width="100" height="20" as="geometry" />
        </mxCell>
        <mxCell id="09DofYSpoh4VHx58hQYr-17" style="edgeStyle=orthogonalEdgeStyle;rounded=0;orthogonalLoop=1;jettySize=auto;html=1;exitX=1;exitY=0.5;exitDx=0;exitDy=0;entryX=0;entryY=0.5;entryDx=0;entryDy=0;strokeColor=none;" parent="1" target="o3dYbopEb7aljcyI0qQh-1" edge="1">
          <mxGeometry relative="1" as="geometry">
            <mxPoint x="120" y="230" as="sourcePoint" />
          </mxGeometry>
        </mxCell>
        <mxCell id="09DofYSpoh4VHx58hQYr-27" value="&lt;b&gt;id&lt;/b&gt;" style="rounded=0;whiteSpace=wrap;html=1;align=left;spacingLeft=5;" parent="1" vertex="1">
          <mxGeometry x="-80" y="220" width="100" height="20" as="geometry" />
        </mxCell>
        <mxCell id="09DofYSpoh4VHx58hQYr-28" value="String" style="rounded=0;whiteSpace=wrap;html=1;spacingLeft=0;fontStyle=2" parent="1" vertex="1">
          <mxGeometry x="20" y="220" width="100" height="20" as="geometry" />
        </mxCell>
        <mxCell id="09DofYSpoh4VHx58hQYr-29" value="user_id" style="rounded=0;whiteSpace=wrap;html=1;align=left;spacingLeft=5;" parent="1" vertex="1">
          <mxGeometry x="-80" y="240" width="100" height="20" as="geometry" />
        </mxCell>
        <mxCell id="09DofYSpoh4VHx58hQYr-30" value="String" style="rounded=0;whiteSpace=wrap;html=1;spacingLeft=0;fontStyle=2" parent="1" vertex="1">
          <mxGeometry x="20" y="240" width="100" height="20" as="geometry" />
        </mxCell>
        <mxCell id="09DofYSpoh4VHx58hQYr-31" value="fcm_token" style="rounded=0;whiteSpace=wrap;html=1;fontStyle=1" parent="1" vertex="1">
          <mxGeometry x="-80" y="200" width="200" height="20" as="geometry" />
        </mxCell>
        <mxCell id="09DofYSpoh4VHx58hQYr-32" value="token" style="rounded=0;whiteSpace=wrap;html=1;align=left;spacingLeft=5;" parent="1" vertex="1">
          <mxGeometry x="-80" y="260" width="100" height="20" as="geometry" />
        </mxCell>
        <mxCell id="09DofYSpoh4VHx58hQYr-33" value="String" style="rounded=0;whiteSpace=wrap;html=1;spacingLeft=0;fontStyle=2" parent="1" vertex="1">
          <mxGeometry x="20" y="260" width="100" height="20" as="geometry" />
        </mxCell>
        <mxCell id="09DofYSpoh4VHx58hQYr-34" value="expires" style="rounded=0;whiteSpace=wrap;html=1;align=left;spacingLeft=5;" parent="1" vertex="1">
          <mxGeometry x="-80" y="280" width="100" height="20" as="geometry" />
        </mxCell>
        <mxCell id="09DofYSpoh4VHx58hQYr-35" value="Timestamp" style="rounded=0;whiteSpace=wrap;html=1;spacingLeft=0;fontStyle=2" parent="1" vertex="1">
          <mxGeometry x="20" y="280" width="100" height="20" as="geometry" />
        </mxCell>
        <mxCell id="09DofYSpoh4VHx58hQYr-36" style="edgeStyle=orthogonalEdgeStyle;rounded=1;orthogonalLoop=1;jettySize=auto;html=1;entryX=1;entryY=0.5;entryDx=0;entryDy=0;endArrow=none;endFill=0;" parent="1" target="09DofYSpoh4VHx58hQYr-30" edge="1">
          <mxGeometry relative="1" as="geometry">
            <mxPoint x="200" y="230" as="sourcePoint" />
            <mxPoint x="130" y="260" as="targetPoint" />
            <Array as="points">
              <mxPoint x="160" y="231" />
              <mxPoint x="160" y="250" />
            </Array>
          </mxGeometry>
        </mxCell>
        <mxCell id="gQY1f_r6P1r_GMr-_NEL-1" value="&lt;span&gt;ne&lt;/span&gt;w_username" style="rounded=0;whiteSpace=wrap;html=1;align=left;spacingLeft=5;fontStyle=0" vertex="1" parent="1">
          <mxGeometry x="-80" y="420" width="100" height="20" as="geometry" />
        </mxCell>
        <mxCell id="gQY1f_r6P1r_GMr-_NEL-2" value="String" style="rounded=0;whiteSpace=wrap;html=1;spacingLeft=0;fontStyle=2" vertex="1" parent="1">
          <mxGeometry x="20" y="420" width="100" height="20" as="geometry" />
        </mxCell>
        <mxCell id="gQY1f_r6P1r_GMr-_NEL-3" value="&lt;span&gt;ne&lt;/span&gt;w_email" style="rounded=0;whiteSpace=wrap;html=1;align=left;spacingLeft=5;fontStyle=0" vertex="1" parent="1">
          <mxGeometry x="-80" y="440" width="100" height="20" as="geometry" />
        </mxCell>
        <mxCell id="gQY1f_r6P1r_GMr-_NEL-4" value="String" style="rounded=0;whiteSpace=wrap;html=1;spacingLeft=0;fontStyle=2" vertex="1" parent="1">
          <mxGeometry x="20" y="440" width="100" height="20" as="geometry" />
        </mxCell>
      </root>
    </mxGraphModel>
  </diagram>
</mxfile>
